<svg width="140" height="136" viewBox="0 0 140 136" fill="none" xmlns="http://www.w3.org/2000/svg">
<path d="M139.604 68.1256L139.604 67.7059C139.604 30.3134 108.449 0.000796422 70.0178 -3.04173e-06L15.0003 -5.44662e-06C6.71602 -5.80874e-06 0.000298125 6.71572 0.000297763 15L0.000297391 23.503C0.000297029 31.7873 6.71602 38.503 15.0003 38.503L39.5733 38.503L50.1375 38.503L70.017 38.503C78.0344 38.503 85.5718 41.5406 91.2409 47.0565C96.91 52.5724 100.032 59.906 100.032 67.7067L100.032 68.124C100.032 75.9247 96.91 83.2583 91.2409 88.7742C85.5718 94.2901 78.0344 97.3277 70.017 97.3277L39.5733 97.3276L15.0003 97.3276C6.71602 97.3276 0.000293871 104.043 0.000293509 112.328L0.000293137 120.831C0.000292775 129.115 6.71602 135.831 15.0003 135.831L70.0191 135.831C108.45 135.83 139.604 105.518 139.604 68.1256Z" fill="#211E3B"/>
<path d="M13.3883 67.8243C13.3883 78.7429 22.4854 87.5942 33.7073 87.5942C44.9292 87.5942 54.0264 78.7429 54.0264 67.8243C54.0264 56.9057 44.9292 48.0544 33.7073 48.0544C22.4854 48.0544 13.3883 56.9057 13.3883 67.8243Z" fill="#211E3B"/>
</svg>
