<svg width="150" height="142" viewBox="0 0 150 142" fill="none" xmlns="http://www.w3.org/2000/svg">
<path fill-rule="evenodd" clip-rule="evenodd" d="M15 142.006C6.71572 142.006 8.00843e-08 135.29 1.78873e-07 127.006L8.467e-07 71.0028C1.31286e-06 31.9114 33.6842 6.39418e-05 74.9474 6.44338e-05C116.211 6.49259e-05 149.895 31.9114 149.895 71.0028L149.895 127.006C149.895 135.29 143.179 142.006 134.895 142.006L114.789 142.006C106.505 142.006 99.7895 135.29 99.7895 127.006L99.7895 79.7785C99.7895 66.615 88.4211 55.8449 74.5263 55.8449C60.6316 55.8449 49.2632 66.615 49.2632 79.7785L49.2632 127.006C49.2632 135.29 42.5474 142.006 34.2632 142.006L15 142.006Z" fill="#211E3B"/>
</svg>
