<svg width="150" height="142" viewBox="0 0 150 142" fill="none" xmlns="http://www.w3.org/2000/svg">
<path fill-rule="evenodd" clip-rule="evenodd" d="M15 142.005C6.71572 142.005 8.00843e-08 135.29 1.78873e-07 127.005L8.467e-07 71.0027C1.31286e-06 31.9113 33.6842 -5.81286e-05 74.9474 -5.76365e-05C116.211 -5.71444e-05 149.895 31.9113 149.895 71.0027L149.895 127.005C149.895 135.29 143.179 142.005 134.895 142.005L114.789 142.005C106.505 142.005 99.7895 135.29 99.7895 127.005L99.7895 79.7783C99.7895 66.6149 88.4211 55.8448 74.5263 55.8448C60.6316 55.8448 49.2632 66.6149 49.2632 79.7783L49.2632 127.005C49.2632 135.29 42.5474 142.005 34.2632 142.005L15 142.005Z" fill="#211E3B"/>
</svg>
