<svg width="143" height="143" viewBox="0 0 143 143" fill="none" xmlns="http://www.w3.org/2000/svg">
<path d="M1.34691e-06 30.8138C1.58833e-06 36.3367 4.49743 40.7494 9.99541 41.2729C36.2173 43.7693 51.1479 56.1489 51.1479 71.0451C51.1479 98.844 51.0638 103.437 51.0476 132.084C51.0445 137.607 55.5221 142.09 61.0449 142.09L81.1476 142.09C86.6705 142.09 91.1481 137.607 91.145 132.084C91.1289 103.437 91.0449 98.8439 91.0449 71.045C91.0449 56.1495 105.892 43.7704 132.095 41.2732C137.593 40.7492 142.09 36.3367 142.09 30.8138L142.09 10C142.09 4.47715 137.613 1.95703e-07 132.09 4.37114e-07L9.99998 5.77384e-06C4.47714 6.01525e-06 1.95703e-07 4.47716 4.37114e-07 10L1.34691e-06 30.8138Z" fill="#9E0510"/>
</svg>
