<svg width="142" height="142" viewBox="0 0 142 142" fill="none" xmlns="http://www.w3.org/2000/svg">
<path d="M83.3844 70.996C83.3844 56.0671 104.392 43.6674 132 41.2228C137.501 40.7357 141.992 36.3084 141.992 30.7855V10C141.992 4.47715 137.515 0 131.992 0H111.206C105.684 0 101.256 4.49102 100.769 9.99234C98.3246 37.6004 85.9249 58.6072 70.996 58.6072C56.0671 58.6072 43.6674 37.6004 41.2228 9.99234C40.7357 4.49102 36.3084 0 30.7855 0H10C4.47715 0 0 4.47715 0 10V30.7855C0 36.3084 4.49102 40.7357 9.99234 41.2228C37.6004 43.6674 58.6072 56.0671 58.6072 70.996C58.6072 85.9249 37.6001 98.3245 9.99234 100.769C4.49102 101.256 0 105.684 0 111.206V131.992C0 137.515 4.47715 141.992 10 141.992H30.7855C36.3084 141.992 40.7357 137.501 41.2228 132C43.6674 104.392 56.0671 83.3848 70.996 83.3848C85.9249 83.3848 98.3245 104.392 100.769 132C101.256 137.501 105.684 141.992 111.206 141.992H131.992C137.515 141.992 141.992 137.515 141.992 131.992V111.206C141.992 105.684 137.501 101.256 132 100.769C104.392 98.3246 83.3844 85.9249 83.3844 70.996Z" fill="#9E0510"/>
</svg>
