<svg width="142" height="142" viewBox="0 0 142 142" fill="none" xmlns="http://www.w3.org/2000/svg">
<path d="M83.3844 70.996C83.3844 56.976 101.911 45.1867 127.034 41.7784C135.243 40.6647 141.992 34.0698 141.992 25.7855V15C141.992 6.71573 135.276 0 126.992 0H116.206C107.922 0 101.327 6.74937 100.214 14.9584C96.8053 40.0805 85.016 58.6072 70.996 58.6072C56.976 58.6072 45.1867 40.0805 41.7784 14.9584C40.6647 6.74936 34.0698 0 25.7855 0H15C6.71573 0 0 6.71573 0 15V25.7855C0 34.0698 6.74937 40.6647 14.9584 41.7784C40.0805 45.1867 58.6072 56.976 58.6072 70.996C58.6072 85.0159 40.0803 96.8052 14.9584 100.214C6.74937 101.327 0 107.922 0 116.206V126.992C0 135.276 6.71573 141.992 15 141.992H25.7855C34.0698 141.992 40.6647 135.243 41.7784 127.034C45.1867 101.911 56.976 83.3848 70.996 83.3848C85.0159 83.3848 96.8052 101.912 100.214 127.034C101.327 135.243 107.922 141.992 116.206 141.992H126.992C135.276 141.992 141.992 135.276 141.992 126.992V116.206C141.992 107.922 135.243 101.327 127.034 100.214C101.911 96.8053 83.3844 85.016 83.3844 70.996Z" fill="#211E3B"/>
</svg>
